<svg width="1010" height="669" viewBox="0 0 1010 669" fill="none" xmlns="http://www.w3.org/2000/svg">
<path d="M1004.77 238.535C992.808 195.425 913.057 242.317 913.057 242.317L933.932 204.433C936.457 200.625 938.666 196.617 940.536 192.448C951.027 168.995 950.89 143.84 940.536 122.057C937.697 108.796 928.968 89.8387 905.086 69.0129C859.89 29.7464 708.358 2.8598 664.422 8.82953C620.485 14.7993 704.305 33.2705 704.305 33.2705H697.67C569.914 19.7209 441.368 17.974 313.825 20.6171C281.836 21.2703 249.757 22.3336 218.436 27.7261C209.433 29.2451 199.747 31.6603 194.373 38.9364C170.628 71.1851 268.021 74.3295 283.354 73.7067C216.448 82.4107 142.162 85.0841 79.9161 110.953C71.2472 114.553 62.639 118.837 56.0956 125.505C49.5522 132.174 45.3012 141.667 46.7739 151.192C51.0704 178.823 89.0253 187.025 110.644 193.162C110.644 193.162 -13.4226 275.705 1.19762 317.6C7.83823 337.497 18.6631 355.74 32.9431 371.1C23.4652 382.761 15.2893 395.424 8.56087 408.862C4.59838 416.974 -0.548308 428.078 3.83928 437.42C26.43 484.995 369.133 648.35 643.744 601.717C716.693 589.337 789.354 568.86 853.255 532.647C916.898 496.601 981.755 437.055 997.788 361.986C998.319 359.51 998.698 357.109 998.972 354.77C1009.05 320.182 1014.79 274.597 1004.77 238.535Z" fill="#265CC0"/>
<path opacity="0.8" d="M1004.77 238.535C992.807 195.425 913.051 242.317 913.051 242.317L933.927 204.433C936.453 200.625 938.661 196.617 940.532 192.448C951.023 168.995 950.887 143.84 940.532 122.057C937.693 108.796 928.963 89.8387 905.08 69.0129C859.881 29.7464 708.34 2.8598 664.401 8.82953C620.462 14.7993 704.286 33.2705 704.286 33.2705H697.652C569.888 19.7209 441.334 17.974 313.783 20.6171C281.792 21.2703 249.711 22.3336 218.389 27.7261C209.385 29.2451 199.699 31.6603 194.324 38.9364C170.578 71.1851 267.976 74.3295 283.311 73.7067C216.4 82.4107 142.11 85.0841 79.8602 110.953C71.1908 114.553 62.5821 118.837 56.0382 125.505C49.4944 132.174 46.9285 141.546 46.716 151.192C46.1087 176.666 87.0417 186.129 110.651 193.162C110.651 193.162 -13.4234 275.705 1.19769 317.6C7.8387 337.497 18.6642 355.74 32.9451 371.1C23.4455 382.758 15.2486 395.421 8.50066 408.862C4.53793 416.974 -0.609069 428.078 3.77878 437.42C26.3709 484.995 369.094 648.35 643.722 601.717C716.676 589.337 789.341 568.86 853.246 532.647C916.892 496.601 981.754 437.055 997.787 361.986C998.318 359.51 998.698 357.109 998.971 354.77C1009.05 320.182 1014.79 274.597 1004.77 238.535Z" fill="white"/>
<path d="M480.979 595.477H222.611C220.585 595.477 218.642 594.672 217.209 593.239C215.776 591.806 214.971 589.863 214.971 587.837V81.1631C214.989 79.1484 215.802 77.2223 217.233 75.804C218.664 74.3857 220.597 73.5899 222.611 73.59H480.979C481.983 73.59 482.976 73.7876 483.903 74.1716C484.83 74.5555 485.672 75.1183 486.382 75.8277C487.091 76.5371 487.654 77.3794 488.038 78.3063C488.422 79.2332 488.619 80.2267 488.619 81.23V587.837C488.619 588.84 488.422 589.834 488.038 590.761C487.654 591.688 487.091 592.53 486.382 593.239C485.672 593.949 484.83 594.511 483.903 594.895C482.976 595.279 481.983 595.477 480.979 595.477ZM222.611 73.8576C220.675 73.8611 218.819 74.632 217.45 76.0012C216.08 77.3705 215.309 79.2266 215.306 81.1631V587.837C215.309 589.773 216.08 591.629 217.45 592.999C218.819 594.368 220.675 595.139 222.611 595.142H480.979C482.916 595.139 484.772 594.368 486.141 592.999C487.51 591.629 488.281 589.773 488.285 587.837V81.1631C488.281 79.2266 487.51 77.3705 486.141 76.0012C484.772 74.632 482.916 73.8611 480.979 73.8576H222.611Z" fill="#EBEBEB"/>
<path d="M770.389 595.477H512.021C509.995 595.477 508.051 594.672 506.619 593.239C505.186 591.806 504.381 589.863 504.381 587.837V81.1631C504.398 79.1484 505.211 77.2223 506.642 75.804C508.073 74.3857 510.006 73.5899 512.021 73.59H770.389C772.415 73.59 774.358 74.3949 775.791 75.8277C777.224 77.2605 778.029 79.2037 778.029 81.23V587.837C778.029 588.84 777.831 589.834 777.447 590.761C777.063 591.688 776.5 592.53 775.791 593.239C775.081 593.949 774.239 594.511 773.312 594.895C772.385 595.279 771.392 595.477 770.389 595.477ZM512.021 73.8576C510.084 73.8611 508.228 74.632 506.859 76.0012C505.49 77.3705 504.719 79.2266 504.715 81.1631V587.837C504.719 589.773 505.49 591.629 506.859 592.999C508.228 594.368 510.084 595.139 512.021 595.142H770.389C772.325 595.139 774.181 594.368 775.55 592.999C776.92 591.629 777.691 589.773 777.694 587.837V81.1631C777.691 79.2266 776.92 77.3705 775.55 76.0012C774.181 74.632 772.325 73.8611 770.389 73.8576H512.021Z" fill="#EBEBEB"/>
<path d="M313.261 225.118L315.428 229.494L320.272 230.203L316.766 233.615L317.596 238.432L313.261 236.157L308.939 238.432L309.769 233.615L306.263 230.203L311.107 229.494L313.261 225.118Z" fill="#EBEBEB"/>
<path d="M746.305 431.478L748.472 435.867L753.316 436.576L749.81 439.975L750.64 444.805L746.305 442.53L741.983 444.805L742.812 439.975L739.307 436.576L744.15 435.867L746.305 431.478Z" fill="#F5F5F5"/>
<path d="M660.539 558.709L662.706 563.084L667.537 563.793L664.031 567.205L664.861 572.022L660.539 569.747L656.217 572.022L657.033 567.205L653.541 563.793L658.371 563.084L660.539 558.709Z" fill="#F5F5F5"/>
<path d="M464.308 147.381L465.111 149.013L466.917 149.281C467.018 149.294 467.113 149.335 467.191 149.401C467.269 149.466 467.326 149.552 467.357 149.649C467.388 149.746 467.391 149.849 467.365 149.948C467.339 150.046 467.286 150.135 467.211 150.204L465.873 151.475L466.181 153.268C466.197 153.368 466.185 153.47 466.146 153.563C466.108 153.657 466.044 153.738 465.962 153.797C465.881 153.857 465.784 153.892 465.683 153.9C465.583 153.909 465.482 153.889 465.392 153.843L463.786 152.987L462.18 153.843C462.09 153.889 461.989 153.909 461.888 153.9C461.788 153.892 461.691 153.857 461.61 153.797C461.528 153.738 461.464 153.657 461.426 153.563C461.387 153.47 461.375 153.368 461.391 153.268L461.685 151.475L460.347 150.204C460.272 150.134 460.219 150.044 460.194 149.945C460.169 149.845 460.172 149.741 460.205 149.644C460.237 149.546 460.297 149.46 460.377 149.396C460.457 149.332 460.553 149.292 460.655 149.281L462.448 149.013L463.251 147.381C463.283 147.265 463.352 147.163 463.447 147.091C463.543 147.018 463.659 146.979 463.779 146.979C463.899 146.979 464.016 147.018 464.111 147.091C464.207 147.163 464.276 147.265 464.308 147.381Z" fill="#EBEBEB"/>
<path d="M243.324 537.876L244.126 539.495L245.919 539.763C246.021 539.777 246.117 539.819 246.196 539.885C246.275 539.951 246.334 540.037 246.366 540.135C246.398 540.232 246.402 540.337 246.377 540.437C246.353 540.537 246.301 540.628 246.227 540.699L244.889 541.957L245.197 543.75C245.213 543.85 245.201 543.952 245.162 544.045C245.123 544.139 245.06 544.219 244.978 544.279C244.896 544.338 244.8 544.374 244.699 544.382C244.599 544.391 244.498 544.371 244.407 544.325L242.802 543.482L241.196 544.325C241.106 544.371 241.005 544.391 240.904 544.382C240.804 544.374 240.707 544.338 240.626 544.279C240.544 544.219 240.48 544.139 240.442 544.045C240.403 543.952 240.391 543.85 240.407 543.75L240.715 541.957L239.377 540.699C239.303 540.628 239.251 540.539 239.226 540.44C239.201 540.341 239.203 540.237 239.234 540.14C239.265 540.043 239.322 539.956 239.399 539.889C239.476 539.822 239.57 539.779 239.671 539.763L241.464 539.495L242.28 537.876C242.316 537.766 242.386 537.67 242.479 537.602C242.573 537.533 242.686 537.497 242.802 537.497C242.918 537.497 243.031 537.533 243.124 537.602C243.218 537.67 243.288 537.766 243.324 537.876Z" fill="#F5F5F5"/>
<path d="M279.41 130.187L280.212 131.82L282.019 132.074C282.119 132.09 282.214 132.134 282.291 132.2C282.368 132.267 282.425 132.354 282.456 132.451C282.486 132.548 282.489 132.652 282.464 132.751C282.439 132.85 282.386 132.94 282.313 133.011L280.975 134.349L281.283 136.128C281.304 136.229 281.296 136.334 281.259 136.431C281.222 136.527 281.158 136.611 281.074 136.671C280.991 136.732 280.892 136.768 280.789 136.773C280.685 136.779 280.583 136.755 280.493 136.703L278.888 135.861L277.282 136.703C277.192 136.755 277.09 136.779 276.987 136.773C276.884 136.768 276.785 136.732 276.701 136.671C276.618 136.611 276.554 136.527 276.517 136.431C276.48 136.334 276.471 136.229 276.493 136.128L276.787 134.349L275.449 133.011C275.375 132.939 275.323 132.848 275.299 132.748C275.274 132.648 275.278 132.544 275.31 132.446C275.343 132.349 275.401 132.262 275.48 132.196C275.559 132.13 275.655 132.088 275.757 132.074L277.55 131.82L278.406 130.187C278.449 130.09 278.519 130.008 278.608 129.949C278.697 129.891 278.801 129.861 278.908 129.861C279.014 129.861 279.118 129.891 279.207 129.949C279.296 130.008 279.367 130.09 279.41 130.187Z" fill="#EBEBEB"/>
<path d="M277.242 452.672C277.245 453.025 277.142 453.37 276.949 453.664C276.755 453.959 276.478 454.189 276.153 454.326C275.828 454.463 275.47 454.5 275.124 454.433C274.777 454.365 274.459 454.197 274.209 453.949C273.959 453.7 273.788 453.383 273.718 453.038C273.648 452.692 273.683 452.334 273.817 452.008C273.951 451.682 274.179 451.403 274.472 451.207C274.765 451.011 275.11 450.906 275.462 450.906C275.932 450.906 276.383 451.092 276.716 451.422C277.049 451.753 277.238 452.203 277.242 452.672Z" fill="#EBEBEB"/>
<path d="M530.846 229.989C530.849 230.341 530.747 230.687 530.553 230.981C530.359 231.275 530.082 231.506 529.757 231.642C529.432 231.779 529.074 231.816 528.728 231.749C528.382 231.682 528.064 231.514 527.813 231.265C527.563 231.017 527.392 230.7 527.323 230.354C527.253 230.009 527.287 229.65 527.422 229.324C527.556 228.998 527.784 228.72 528.077 228.524C528.37 228.327 528.714 228.223 529.067 228.223C529.3 228.221 529.531 228.265 529.747 228.353C529.963 228.441 530.159 228.571 530.324 228.735C530.49 228.899 530.621 229.095 530.711 229.31C530.8 229.525 530.846 229.756 530.846 229.989Z" fill="#EBEBEB"/>
<path d="M438.578 131.659C438.578 132.011 438.474 132.355 438.278 132.648C438.083 132.94 437.805 133.169 437.479 133.303C437.154 133.438 436.796 133.473 436.451 133.405C436.106 133.336 435.789 133.166 435.54 132.918C435.291 132.669 435.122 132.352 435.053 132.006C434.984 131.661 435.02 131.303 435.154 130.978C435.289 130.653 435.517 130.375 435.81 130.18C436.102 129.984 436.447 129.88 436.798 129.88C437.269 129.883 437.72 130.072 438.053 130.405C438.386 130.738 438.575 131.188 438.578 131.659Z" fill="#F5F5F5"/>
<path d="M441.396 565.363C446.682 564.116 449.956 558.819 448.708 553.533C447.461 548.247 442.164 544.973 436.878 546.221C431.592 547.468 428.318 552.765 429.566 558.051C430.813 563.337 436.11 566.611 441.396 565.363Z" fill="#F0F0F0"/>
<path d="M435.755 550.038C433.74 550.034 431.777 550.672 430.149 551.858C429.317 553.766 429.113 555.888 429.566 557.919C430.018 559.95 431.104 561.785 432.667 563.159C434.23 564.533 436.189 565.375 438.261 565.563C440.334 565.752 442.412 565.277 444.198 564.208C444.988 562.746 445.385 561.104 445.35 559.443C445.315 557.782 444.849 556.158 443.998 554.731C443.147 553.304 441.94 552.123 440.495 551.302C439.05 550.482 437.416 550.051 435.755 550.052V550.038Z" fill="#E6E6E6"/>
<path d="M359.596 384.862H278.179V348.107L359.596 251.317H398.558V350.195H418.749V384.862H398.558V414.941H359.596V384.862ZM359.596 350.195V299.565L316.566 350.195H359.596Z" fill="#265CC0"/>
<path d="M432.677 333.844C432.677 303.258 438.181 281.85 449.188 269.62C460.196 257.391 476.97 251.281 499.51 251.29C510.33 251.29 519.219 252.628 526.177 255.304C532.497 257.581 538.285 261.128 543.183 265.727C547.311 269.669 550.809 274.222 553.552 279.227C556.267 284.453 558.313 290.001 559.64 295.738C562.665 307.995 564.175 320.577 564.136 333.202C564.136 362.388 559.199 383.747 549.324 397.279C539.45 410.811 522.444 417.581 498.306 417.59C484.766 417.59 473.825 415.431 465.485 411.114C457.078 406.726 449.996 400.171 444.974 392.128C441.093 386.205 438.074 378.101 435.915 367.816C433.674 356.633 432.589 345.249 432.677 333.844ZM477.019 333.951C477.019 354.467 478.825 368.458 482.438 375.924C486.05 383.391 491.3 387.141 498.186 387.177C500.371 387.202 502.54 386.792 504.565 385.972C506.591 385.152 508.434 383.938 509.987 382.4C513.323 379.216 515.776 374.185 517.346 367.308C518.916 360.43 519.701 349.726 519.701 335.196C519.701 313.841 517.89 299.485 514.269 292.126C510.647 284.767 505.215 281.092 497.972 281.1C490.586 281.1 485.234 284.851 481.916 292.353C478.598 299.855 476.965 313.721 477.019 333.951Z" fill="#265CC0"/>
<path d="M659.388 384.862H577.971V348.107L659.388 251.317H698.351V350.195H718.608V384.862H698.351V414.941H659.388V384.862ZM659.388 350.195V299.565L616.371 350.195H659.388Z" fill="#265CC0"/>
<g opacity="0.3">
<path d="M430.938 194.84C430.938 195.335 430.791 195.819 430.515 196.231C430.24 196.643 429.848 196.963 429.39 197.152C428.932 197.341 428.429 197.39 427.943 197.293C427.457 197.195 427.011 196.955 426.662 196.604C426.313 196.253 426.075 195.806 425.98 195.319C425.885 194.833 425.937 194.33 426.128 193.873C426.32 193.416 426.642 193.026 427.056 192.753C427.469 192.479 427.954 192.335 428.449 192.337C428.777 192.337 429.102 192.402 429.405 192.528C429.708 192.654 429.983 192.839 430.214 193.071C430.445 193.304 430.628 193.58 430.752 193.883C430.877 194.187 430.94 194.512 430.938 194.84Z" fill="#265CC0"/>
<path d="M259.634 290.948C260.609 290.948 261.4 290.157 261.4 289.182C261.4 288.207 260.609 287.416 259.634 287.416C258.658 287.416 257.868 288.207 257.868 289.182C257.868 290.157 258.658 290.948 259.634 290.948Z" fill="#265CC0"/>
<path d="M551.425 548.874C552.822 548.874 553.954 547.742 553.954 546.346C553.954 544.949 552.822 543.817 551.425 543.817C550.028 543.817 548.896 544.949 548.896 546.346C548.896 547.742 550.028 548.874 551.425 548.874Z" fill="#265CC0"/>
<path d="M612.237 445.982C613.212 445.982 614.003 445.191 614.003 444.216C614.003 443.241 613.212 442.45 612.237 442.45C611.262 442.45 610.471 443.241 610.471 444.216C610.471 445.191 611.262 445.982 612.237 445.982Z" fill="#265CC0"/>
<path d="M729.539 127.94C729.539 128.289 729.436 128.63 729.242 128.921C729.048 129.211 728.772 129.438 728.449 129.571C728.126 129.705 727.771 129.74 727.429 129.672C727.086 129.604 726.771 129.435 726.524 129.188C726.277 128.941 726.109 128.627 726.041 128.284C725.973 127.942 726.008 127.586 726.142 127.264C726.275 126.941 726.502 126.665 726.792 126.471C727.083 126.277 727.424 126.173 727.773 126.173C728.242 126.173 728.691 126.359 729.022 126.691C729.353 127.022 729.539 127.471 729.539 127.94Z" fill="#265CC0"/>
<path d="M393.14 92.322C393.14 92.6713 393.036 93.0128 392.842 93.3032C392.648 93.5937 392.372 93.82 392.049 93.9537C391.727 94.0874 391.371 94.1224 391.029 94.0542C390.686 93.9861 390.371 93.8179 390.124 93.5709C389.877 93.3239 389.709 93.0092 389.641 92.6666C389.573 92.324 389.608 91.9689 389.742 91.6461C389.875 91.3234 390.102 91.0476 390.392 90.8535C390.683 90.6594 391.024 90.5558 391.373 90.5558C391.841 90.5593 392.288 90.7465 392.618 91.077C392.949 91.4075 393.136 91.8547 393.14 92.322Z" fill="#265CC0"/>
<path d="M533.563 184.992C534.538 184.992 535.329 184.201 535.329 183.226C535.329 182.25 534.538 181.46 533.563 181.46C532.587 181.46 531.796 182.25 531.796 183.226C531.796 184.201 532.587 184.992 533.563 184.992Z" fill="#265CC0"/>
</g>
<path d="M350.966 185.005C367.156 185.005 380.281 171.88 380.281 155.69C380.281 139.499 367.156 126.374 350.966 126.374C334.775 126.374 321.65 139.499 321.65 155.69C321.65 171.88 334.775 185.005 350.966 185.005Z" fill="#265CC0"/>
<path opacity="0.7" d="M350.966 185.005C367.156 185.005 380.281 171.88 380.281 155.69C380.281 139.499 367.156 126.374 350.966 126.374C334.775 126.374 321.65 139.499 321.65 155.69C321.65 171.88 334.775 185.005 350.966 185.005Z" fill="white"/>
<path opacity="0.2" d="M340.864 133.573C336.871 133.56 332.919 134.366 329.25 135.941C324.741 140.897 322.065 147.247 321.666 153.935C321.268 160.624 323.172 167.247 327.061 172.702C330.95 178.158 336.59 182.118 343.042 183.923C349.495 185.728 356.371 185.27 362.526 182.624C366.342 178.418 368.856 173.194 369.761 167.588C370.665 161.981 369.923 156.232 367.623 151.039C365.324 145.846 361.566 141.433 356.806 138.335C352.046 135.236 346.49 133.587 340.81 133.586L340.864 133.573Z" fill="#265CC0"/>
<path opacity="0.2" d="M337.947 141.32C337.947 141.849 337.79 142.366 337.496 142.806C337.202 143.246 336.784 143.589 336.295 143.792C335.806 143.994 335.268 144.047 334.749 143.944C334.23 143.841 333.753 143.586 333.379 143.212C333.005 142.838 332.75 142.361 332.646 141.842C332.543 141.323 332.596 140.784 332.799 140.296C333.001 139.807 333.344 139.389 333.784 139.095C334.224 138.801 334.742 138.644 335.271 138.644C335.981 138.644 336.661 138.926 337.163 139.427C337.665 139.929 337.947 140.61 337.947 141.32Z" fill="#265CC0"/>
<path opacity="0.2" d="M369.47 138.644C369.47 139.173 369.313 139.69 369.019 140.13C368.725 140.57 368.307 140.913 367.818 141.116C367.329 141.318 366.791 141.371 366.272 141.268C365.753 141.165 365.276 140.91 364.902 140.536C364.528 140.162 364.273 139.685 364.17 139.166C364.066 138.647 364.119 138.108 364.322 137.62C364.525 137.131 364.868 136.713 365.308 136.419C365.748 136.125 366.265 135.968 366.794 135.968C367.504 135.968 368.185 136.25 368.687 136.751C369.188 137.253 369.47 137.934 369.47 138.644Z" fill="#265CC0"/>
<path opacity="0.2" d="M364.118 157.75C364.118 158.618 363.861 159.467 363.379 160.188C362.896 160.91 362.211 161.473 361.409 161.805C360.607 162.137 359.725 162.224 358.873 162.055C358.022 161.885 357.24 161.467 356.626 160.853C356.013 160.24 355.595 159.458 355.425 158.606C355.256 157.755 355.343 156.873 355.675 156.071C356.007 155.269 356.57 154.583 357.291 154.101C358.013 153.619 358.862 153.362 359.73 153.362C360.894 153.362 362.01 153.824 362.833 154.647C363.656 155.47 364.118 156.586 364.118 157.75Z" fill="#265CC0"/>
<path opacity="0.2" d="M350.176 170.261C350.176 171.42 349.833 172.553 349.189 173.516C348.545 174.48 347.629 175.231 346.559 175.675C345.488 176.118 344.309 176.234 343.173 176.008C342.036 175.782 340.992 175.224 340.172 174.404C339.352 173.585 338.794 172.541 338.568 171.404C338.342 170.267 338.458 169.089 338.902 168.018C339.345 166.947 340.096 166.032 341.06 165.388C342.024 164.744 343.157 164.4 344.316 164.4C345.87 164.4 347.361 165.018 348.46 166.117C349.559 167.216 350.176 168.706 350.176 170.261Z" fill="#265CC0"/>
<path d="M698.404 509.304C701.668 495.474 693.103 481.617 679.272 478.352C665.442 475.088 651.585 483.654 648.32 497.484C645.056 511.314 653.622 525.172 667.452 528.436C681.282 531.7 695.14 523.135 698.404 509.304Z" fill="#265CC0"/>
<path opacity="0.3" d="M698.404 509.304C701.668 495.474 693.103 481.617 679.272 478.352C665.442 475.088 651.585 483.654 648.32 497.484C645.056 511.314 653.622 525.172 667.452 528.436C681.282 531.7 695.14 523.135 698.404 509.304Z" fill="white"/>
<path opacity="0.4" d="M689.614 483.473C683.91 481.751 677.785 482.064 672.286 484.357C666.787 486.649 662.255 490.78 659.463 496.044C656.672 501.308 655.795 507.377 656.982 513.216C658.169 519.054 661.346 524.299 665.971 528.055C668.37 528.784 670.863 529.153 673.37 529.152C678.682 529.151 683.863 527.506 688.203 524.443C692.542 521.379 695.827 517.048 697.607 512.043C699.387 507.038 699.574 501.605 698.143 496.49C696.711 491.375 693.732 486.828 689.614 483.473Z" fill="#265CC0"/>
<path d="M648.805 511.116C621.335 524.041 641.82 534.009 680.529 520.094C716.374 507.209 730.035 490.966 697.923 496.01C699.649 502.767 654.759 520.255 648.805 511.116Z" fill="#265CC0"/>
<path opacity="0.2" d="M689.306 251.317C653.327 275.628 606.751 307.74 593.893 384.862H591.15C603.66 308.596 648.537 275.722 684.529 251.317H689.306Z" fill="black"/>
<path d="M503.19 492.745C480.444 492.745 457.952 482.483 446.994 465.731C440.237 455.375 432.383 433.686 455.771 404.745L457.845 406.431C441.307 426.902 438.257 447.441 449.242 464.273C462.622 484.744 494.185 495.047 521.133 487.714C548.736 480.208 565.487 456.204 567.106 421.858C572.632 304.368 635.05 268.175 680.622 241.75C708.948 225.333 729.406 213.478 724.91 188.444C724.281 184.978 722.903 182.583 720.669 181.112C714.848 177.272 703.475 179.934 690.309 182.998C664.473 189.019 629.096 197.261 608.022 161.416L610.337 160.078C630.407 194.237 663.282 186.571 689.707 180.416C703.475 177.218 715.357 174.448 722.14 178.904C725.017 180.791 726.783 183.774 727.492 188.002C732.323 214.869 710.098 227.768 681.933 244.091C636.883 270.209 575.201 305.974 569.742 422.045C568.056 457.636 550.582 482.536 521.788 490.364C515.722 491.979 509.468 492.78 503.19 492.745Z" fill="#265CC0"/>
<path opacity="0.2" d="M503.19 492.745C480.444 492.745 457.952 482.483 446.994 465.731C440.237 455.375 432.383 433.686 455.771 404.745L457.845 406.431C441.307 426.902 438.257 447.441 449.242 464.273C462.622 484.744 494.185 495.047 521.133 487.714C548.736 480.208 565.487 456.204 567.106 421.858C572.632 304.368 635.05 268.175 680.622 241.75C708.948 225.333 729.406 213.478 724.91 188.444C724.281 184.978 722.903 182.583 720.669 181.112C714.848 177.272 703.475 179.934 690.309 182.998C664.473 189.019 629.096 197.261 608.022 161.416L610.337 160.078C630.407 194.237 663.282 186.571 689.707 180.416C703.475 177.218 715.357 174.448 722.14 178.904C725.017 180.791 726.783 183.774 727.492 188.002C732.323 214.869 710.098 227.768 681.933 244.091C636.883 270.209 575.201 305.974 569.742 422.045C568.056 457.636 550.582 482.536 521.788 490.364C515.722 491.979 509.468 492.78 503.19 492.745Z" fill="white"/>
<path d="M580.473 129.786C586.638 129.822 592.763 130.782 598.643 132.636C598.643 132.636 613.361 157.75 615.1 163.504C614.485 169.177 604.918 178.476 604.918 178.476L580.473 129.786Z" fill="#265CC0"/>
<path opacity="0.3" d="M580.473 129.786C586.638 129.822 592.763 130.782 598.643 132.636C598.643 132.636 613.361 157.75 615.1 163.504C614.485 169.177 604.918 178.476 604.918 178.476L580.473 129.786Z" fill="white"/>
<path d="M624.065 251.718C618.397 244.788 613.228 237.464 608.598 229.801C607.474 227.866 606.408 225.895 605.4 223.888C604.825 222.75 604.276 221.613 603.741 220.462C603.038 219.343 602.494 218.131 602.122 216.863C600.516 199.911 606.323 187.427 600.784 173.82L578.733 182.436C578.733 182.436 580.607 206.681 584.888 221.238C587.564 230.243 593.559 238.03 599.352 245.242C601.158 247.49 602.898 249.805 604.704 252.066C606.51 254.327 608.33 256.16 610.056 258.288C612.665 261.512 613.521 264.603 611.555 268.403L611.22 269.005C610.658 269.995 613.281 271.119 614.94 269.005C617.616 265.553 617.241 265.767 619.569 262.823C620.988 261.044 622.606 259.104 624.011 257.471C624.689 256.669 625.065 255.655 625.075 254.604C625.085 253.554 624.728 252.533 624.065 251.718Z" fill="#265CC0"/>
<path opacity="0.7" d="M624.065 251.718C618.397 244.788 613.228 237.464 608.598 229.801C607.474 227.866 606.408 225.895 605.4 223.888C604.825 222.75 604.276 221.613 603.741 220.462C603.038 219.343 602.494 218.131 602.122 216.863C600.516 199.911 606.323 187.427 600.784 173.82L578.733 182.436C578.733 182.436 580.607 206.681 584.888 221.238C587.564 230.243 593.559 238.03 599.352 245.242C601.158 247.49 602.898 249.805 604.704 252.066C606.51 254.327 608.33 256.16 610.056 258.288C612.665 261.512 613.521 264.603 611.555 268.403L611.22 269.005C610.658 269.995 613.281 271.119 614.94 269.005C617.616 265.553 617.241 265.767 619.569 262.823C620.988 261.044 622.606 259.104 624.011 257.471C624.689 256.669 625.065 255.655 625.075 254.604C625.085 253.554 624.728 252.533 624.065 251.718Z" fill="white"/>
<path opacity="0.3" d="M618.673 244.747C615.174 248.498 611.29 251.87 607.086 254.809C607.661 255.451 608.223 256.147 608.798 256.762C613.008 253.918 616.831 250.541 620.171 246.714L618.673 244.747Z" fill="#265CC0"/>
<path opacity="0.3" d="M624.065 251.718L623.904 251.531C622.875 252.712 622.276 254.207 622.205 255.772C622.119 256.846 622.293 257.924 622.714 258.916L623.985 257.404C624.649 256.61 625.02 255.611 625.034 254.575C625.049 253.54 624.707 252.531 624.065 251.718Z" fill="#265CC0"/>
<path d="M575.228 145.842C572.837 149.421 569.97 152.658 566.705 155.462C564.894 157.023 562.91 158.37 560.791 159.476C559.678 160.047 558.524 160.534 557.339 160.935L556.429 161.229L556.135 161.309L555.506 161.483C555.119 161.575 554.725 161.638 554.328 161.671C553.2 161.757 552.064 161.653 550.97 161.363C549.59 160.971 548.267 160.4 547.036 159.664C546.046 159.084 545.085 158.455 544.16 157.777C542.487 156.533 540.887 155.192 539.37 153.763C536.443 150.99 533.757 147.973 531.342 144.745C530.876 144.116 530.645 143.344 530.688 142.563C530.731 141.782 531.045 141.041 531.577 140.467C532.108 139.893 532.823 139.522 533.598 139.419C534.374 139.316 535.161 139.486 535.824 139.901H535.931C539.089 141.908 542.273 144.022 545.377 145.909C546.956 146.832 548.481 147.769 549.993 148.491C550.683 148.853 551.394 149.174 552.121 149.455C552.573 149.655 553.058 149.772 553.552 149.802C553.633 149.802 553.552 149.709 553.057 149.722C552.901 149.713 552.745 149.713 552.589 149.722L552.295 149.789L552.736 149.562C553.331 149.242 553.907 148.889 554.462 148.505C555.659 147.661 556.779 146.711 557.807 145.668C560.145 143.218 562.334 140.631 564.363 137.921C565.475 136.677 567.012 135.893 568.672 135.724C570.332 135.554 571.995 136.011 573.335 137.005C574.676 137.998 575.596 139.457 575.917 141.094C576.237 142.732 575.934 144.43 575.067 145.855L575.228 145.842Z" fill="#265CC0"/>
<path opacity="0.7" d="M575.228 145.842C572.837 149.421 569.97 152.658 566.705 155.462C564.894 157.023 562.91 158.37 560.791 159.476C559.678 160.047 558.524 160.534 557.339 160.935L556.429 161.229L556.135 161.309L555.506 161.483C555.119 161.575 554.725 161.638 554.328 161.671C553.2 161.757 552.064 161.653 550.97 161.363C549.59 160.971 548.267 160.4 547.036 159.664C546.046 159.084 545.085 158.455 544.16 157.777C542.487 156.533 540.887 155.192 539.37 153.763C536.443 150.99 533.757 147.973 531.342 144.745C530.876 144.116 530.645 143.344 530.688 142.563C530.731 141.782 531.045 141.041 531.577 140.467C532.108 139.893 532.823 139.522 533.598 139.419C534.374 139.316 535.161 139.486 535.824 139.901H535.931C539.089 141.908 542.273 144.022 545.377 145.909C546.956 146.832 548.481 147.769 549.993 148.491C550.683 148.853 551.394 149.174 552.121 149.455C552.573 149.655 553.058 149.772 553.552 149.802C553.633 149.802 553.552 149.709 553.057 149.722C552.901 149.713 552.745 149.713 552.589 149.722L552.295 149.789L552.736 149.562C553.331 149.242 553.907 148.889 554.462 148.505C555.659 147.661 556.779 146.711 557.807 145.668C560.145 143.218 562.334 140.631 564.363 137.921C565.475 136.677 567.012 135.893 568.672 135.724C570.332 135.554 571.995 136.011 573.335 137.005C574.676 137.998 575.596 139.457 575.917 141.094C576.237 142.732 575.934 144.43 575.067 145.855L575.228 145.842Z" fill="white"/>
<path d="M526.324 137.038L527.889 139.714C527.889 139.714 529.08 143.22 531.475 143.862L537.978 141.761L537.643 141.213C536.814 139.955 536.908 137.506 537.189 135.473C537.47 133.439 536.426 133.372 535.65 133.88C535.1 134.513 534.714 135.271 534.526 136.088C534.207 135.646 533.853 135.23 533.469 134.844L531.489 132.863C531.073 132.457 530.52 132.223 529.939 132.209C529.358 132.194 528.793 132.399 528.358 132.783L526.752 134.215C526.371 134.567 526.121 135.038 526.044 135.551C525.966 136.064 526.065 136.589 526.324 137.038Z" fill="#265CC0"/>
<path opacity="0.7" d="M526.324 137.038L527.889 139.714C527.889 139.714 529.08 143.22 531.475 143.862L537.978 141.761L537.643 141.213C536.814 139.955 536.908 137.506 537.189 135.473C537.47 133.439 536.426 133.372 535.65 133.88C535.1 134.513 534.714 135.271 534.526 136.088C534.207 135.646 533.853 135.23 533.469 134.844L531.489 132.863C531.073 132.457 530.52 132.223 529.939 132.209C529.358 132.194 528.793 132.399 528.358 132.783L526.752 134.215C526.371 134.567 526.121 135.038 526.044 135.551C525.966 136.064 526.065 136.589 526.324 137.038Z" fill="white"/>
<path d="M587.042 127.404C579.83 129.316 572.921 132.23 566.518 136.061C565.519 136.686 564.735 137.602 564.271 138.685C563.807 139.769 563.685 140.968 563.922 142.122C566.504 154.753 572.378 171.665 578.72 182.436L608.303 170.194C608.504 164.975 601.319 148.09 594 131.766C592.689 128.836 590.16 126.655 587.042 127.404Z" fill="#265CC0"/>
<path opacity="0.8" d="M587.042 127.404C579.83 129.316 572.921 132.23 566.518 136.061C565.519 136.686 564.735 137.602 564.271 138.685C563.807 139.769 563.685 140.968 563.922 142.122C566.504 154.753 572.378 171.665 578.72 182.436L608.303 170.194C608.504 164.975 601.319 148.09 594 131.766C592.689 128.836 590.16 126.655 587.042 127.404Z" fill="white"/>
<path opacity="0.3" d="M598.589 142.109L592.716 140.142C594.054 143.581 598.777 147.929 602.082 150.485C601.011 147.809 599.82 144.999 598.589 142.109Z" fill="#265CC0"/>
<path d="M585.102 114.158C582.654 109.502 577.369 107.16 571.027 107.682C565.675 108.137 560.938 113.596 561.5 116.54C562.062 119.483 566.558 120.741 567.414 121.758L563.708 124.434C563.269 124.751 562.898 125.153 562.619 125.617C562.339 126.081 562.157 126.596 562.082 127.133C562.007 127.669 562.041 128.215 562.182 128.738C562.324 129.26 562.57 129.749 562.905 130.174C564.47 132.154 566.531 134.188 567.722 135.687C577.971 135.419 585.557 131.512 588.3 127.752C587.27 122.989 587.484 118.788 585.102 114.158Z" fill="#265CC0"/>
<path opacity="0.8" d="M585.102 114.158C582.654 109.502 577.369 107.16 571.027 107.682C565.675 108.137 560.938 113.596 561.5 116.54C562.062 119.483 566.558 120.741 567.414 121.758L563.708 124.434C563.269 124.751 562.898 125.153 562.619 125.617C562.339 126.081 562.157 126.596 562.082 127.133C562.007 127.669 562.041 128.215 562.182 128.738C562.324 129.26 562.57 129.749 562.905 130.174C564.47 132.154 566.531 134.188 567.722 135.687C577.971 135.419 585.557 131.512 588.3 127.752C587.27 122.989 587.484 118.788 585.102 114.158Z" fill="white"/>
<path d="M580.071 117.048C580.799 118.914 580.957 120.954 580.526 122.91C580.094 124.866 579.093 126.65 577.647 128.036C576.202 129.423 574.378 130.35 572.406 130.7C570.434 131.051 568.403 130.808 566.569 130.004C564.734 129.2 563.179 127.871 562.101 126.183C561.022 124.496 560.468 122.526 560.508 120.524C560.549 118.521 561.182 116.576 562.328 114.933C563.473 113.29 565.08 112.024 566.946 111.295C569.449 110.319 572.238 110.378 574.699 111.456C577.16 112.535 579.092 114.546 580.071 117.048Z" fill="#263238"/>
<path d="M666.948 237.629C666.801 233.227 666.6 233.615 666.48 229.909C666.399 227.634 666.386 225.105 666.372 222.924C666.368 221.888 666.006 220.886 665.348 220.086C664.69 219.287 663.775 218.739 662.76 218.536C660.994 218.174 659.214 217.84 657.408 217.465C655.093 216.97 652.805 216.435 650.544 215.779C648.778 215.271 647.038 214.709 645.312 214.08C643.586 213.451 641.646 212.742 639.853 211.912C637.739 211.016 635.652 210.053 633.591 209.049C631.277 207.952 628.989 206.801 626.701 205.637C617.897 191.066 617.709 181.46 608.263 170.194L587.979 179.372C587.979 179.372 602.884 205.811 613.026 217.024C618.873 223.473 628.039 226.39 636.214 228.504C642.115 230.016 648.095 231.18 654.076 232.29C656.404 232.718 658.933 232.879 660.94 234.27C662.425 235.409 663.443 237.05 663.804 238.887C663.893 239.261 663.973 239.636 664.044 240.01C664.299 241.134 667.041 240.278 666.948 237.629Z" fill="#265CC0"/>
<path opacity="0.8" d="M666.948 237.629C666.801 233.227 666.6 233.615 666.48 229.909C666.399 227.634 666.386 225.105 666.372 222.924C666.368 221.888 666.006 220.886 665.348 220.086C664.69 219.287 663.775 218.739 662.76 218.536C660.994 218.174 659.214 217.84 657.408 217.465C655.093 216.97 652.805 216.435 650.544 215.779C648.778 215.271 647.038 214.709 645.312 214.08C643.586 213.451 641.646 212.742 639.853 211.912C637.739 211.016 635.652 210.053 633.591 209.049C631.277 207.952 628.989 206.801 626.701 205.637C617.897 191.066 617.709 181.46 608.263 170.194L587.979 179.372C587.979 179.372 602.884 205.811 613.026 217.024C618.873 223.473 628.039 226.39 636.214 228.504C642.115 230.016 648.095 231.18 654.076 232.29C656.404 232.718 658.933 232.879 660.94 234.27C662.425 235.409 663.443 237.05 663.804 238.887C663.893 239.261 663.973 239.636 664.044 240.01C664.299 241.134 667.041 240.278 666.948 237.629Z" fill="white"/>
<path opacity="0.3" d="M656.659 217.291C655.856 217.117 655.053 216.943 654.237 216.743C654.304 221.372 652.136 229.347 651.347 231.768L653.889 232.25C655.555 227.43 656.489 222.388 656.659 217.291Z" fill="#265CC0"/>
<path opacity="0.3" d="M666.426 222.924C666.422 221.89 666.062 220.889 665.406 220.09C664.751 219.291 663.84 218.742 662.827 218.536L661.489 218.281C661.704 219.802 662.482 221.187 663.67 222.162C664.434 222.868 665.349 223.389 666.346 223.687C666.426 223.446 666.426 223.178 666.426 222.924Z" fill="#265CC0"/>
<path d="M578.185 117.129C578.72 119.162 576.445 121.29 574.639 119.537C572.953 117.729 571.108 116.077 569.127 114.6C567.267 113.436 569.742 111.402 572.672 112.191C573.923 112.505 575.078 113.119 576.038 113.979C576.999 114.839 577.735 115.92 578.185 117.129Z" fill="white"/>
<path d="M578.332 181.781C577.395 182.129 579.108 183.734 579.108 183.734C579.108 183.734 597.84 177.325 609.213 170.729C609.241 170.329 609.172 169.929 609.014 169.562C608.856 169.194 608.612 168.869 608.303 168.615C598.57 173.566 588.563 177.962 578.332 181.781Z" fill="#265CC0"/>
<path opacity="0.5" d="M578.332 181.781C577.395 182.129 579.108 183.734 579.108 183.734C579.108 183.734 597.84 177.325 609.213 170.729C609.241 170.329 609.172 169.929 609.014 169.562C608.856 169.194 608.612 168.869 608.303 168.615C598.57 173.566 588.563 177.962 578.332 181.781Z" fill="white"/>
<path d="M592.113 126.521C595.806 128.394 599.272 130.361 602.817 132.542C604.543 133.639 606.256 134.75 607.955 135.954C609.655 137.158 611.341 138.389 613.04 139.781L613.669 140.303L614.458 141.025C614.929 141.446 615.375 141.893 615.796 142.363C616.224 142.831 616.586 143.286 616.933 143.701C617.281 144.116 617.656 144.611 617.964 145.039C619.21 146.759 620.363 148.546 621.416 150.391C623.489 153.969 625.279 157.705 626.768 161.563C627.043 162.292 627.057 163.094 626.808 163.833C626.559 164.571 626.062 165.2 625.401 165.613C624.74 166.026 623.957 166.198 623.184 166.099C622.411 166 621.696 165.636 621.161 165.069L621.095 164.989C618.419 162.139 615.836 159.142 613.24 156.345C610.645 153.549 608.009 150.712 605.828 149.468C602.791 147.581 599.406 145.695 596.047 143.848L585.932 138.229C584.363 137.398 583.189 135.979 582.667 134.283C582.145 132.586 582.319 130.752 583.149 129.184C583.979 127.615 585.399 126.441 587.095 125.919C588.791 125.397 590.625 125.57 592.194 126.401L592.113 126.521Z" fill="#265CC0"/>
<path opacity="0.8" d="M592.113 126.521C595.806 128.394 599.272 130.361 602.817 132.542C604.543 133.639 606.256 134.75 607.955 135.954C609.655 137.158 611.341 138.389 613.04 139.781L613.669 140.303L614.458 141.025C614.929 141.446 615.375 141.893 615.796 142.363C616.224 142.831 616.586 143.286 616.933 143.701C617.281 144.116 617.656 144.611 617.964 145.039C619.21 146.759 620.363 148.546 621.416 150.391C623.489 153.969 625.279 157.705 626.768 161.563C627.043 162.292 627.057 163.094 626.808 163.833C626.559 164.571 626.062 165.2 625.401 165.613C624.74 166.026 623.957 166.198 623.184 166.099C622.411 166 621.696 165.636 621.161 165.069L621.095 164.989C618.419 162.139 615.836 159.142 613.24 156.345C610.645 153.549 608.009 150.712 605.828 149.468C602.791 147.581 599.406 145.695 596.047 143.848L585.932 138.229C584.363 137.398 583.189 135.979 582.667 134.283C582.145 132.586 582.319 130.752 583.149 129.184C583.979 127.615 585.399 126.441 587.095 125.919C588.791 125.397 590.625 125.57 592.194 126.401L592.113 126.521Z" fill="white"/>
<path d="M629.939 168.24L628.801 165.39C628.801 165.39 628.173 161.751 625.911 160.734L619.221 161.791L619.449 162.38C620.064 163.718 619.596 166.166 618.994 168.12C618.392 170.073 619.409 170.327 620.265 169.939C620.747 169.725 621.215 168.856 621.723 167.932C621.973 168.397 622.255 168.845 622.566 169.27L624.212 171.532C624.556 172 625.064 172.321 625.635 172.431C626.206 172.54 626.797 172.429 627.289 172.12L629.109 170.956C629.535 170.665 629.849 170.237 630 169.744C630.151 169.25 630.129 168.72 629.939 168.24Z" fill="#265CC0"/>
<path opacity="0.8" d="M629.939 168.24L628.801 165.39C628.801 165.39 628.173 161.751 625.911 160.734L619.221 161.791L619.449 162.38C620.064 163.718 619.596 166.166 618.994 168.12C618.392 170.073 619.409 170.327 620.265 169.939C620.747 169.725 621.215 168.856 621.723 167.932C621.973 168.397 622.255 168.845 622.566 169.27L624.212 171.532C624.556 172 625.064 172.321 625.635 172.431C626.206 172.54 626.797 172.429 627.289 172.12L629.109 170.956C629.535 170.665 629.849 170.237 630 169.744C630.151 169.25 630.129 168.72 629.939 168.24Z" fill="white"/>
<path opacity="0.3" d="M586.467 141.908L584.835 142.042L574.813 166.233C575.361 166.273 575.911 166.227 576.446 166.099C576.446 166.099 589.504 161.229 593.451 159.409C590.802 153.937 586.467 141.908 586.467 141.908Z" fill="#265CC0"/>
<path d="M568.177 148.25C569.394 154.574 571.655 160.651 574.867 166.233C579.764 164.547 587.926 161.363 591.886 159.543C589.224 153.836 586.861 147.995 584.808 142.042C580.62 142.323 571.428 145.842 568.177 148.25Z" fill="white"/>
<path opacity="0.3" d="M578.118 153.482C577.922 154.136 577.537 154.718 577.011 155.153C576.485 155.588 575.841 155.858 575.162 155.927C574.482 155.997 573.798 155.863 573.194 155.543C572.591 155.224 572.096 154.732 571.772 154.131C571.448 153.53 571.309 152.846 571.374 152.166C571.439 151.486 571.704 150.841 572.135 150.312C572.567 149.782 573.146 149.393 573.799 149.193C574.452 148.993 575.149 148.991 575.803 149.187C576.679 149.45 577.415 150.05 577.849 150.856C578.283 151.661 578.38 152.605 578.118 153.482Z" fill="#265CC0"/>
<path opacity="0.6" d="M580.674 148.879C580.621 149.103 580.503 149.305 580.334 149.46C580.165 149.615 579.952 149.715 579.725 149.747C579.498 149.779 579.267 149.742 579.061 149.64C578.856 149.538 578.686 149.376 578.574 149.176C578.462 148.976 578.413 148.747 578.433 148.519C578.454 148.29 578.543 148.073 578.689 147.896C578.835 147.72 579.031 147.591 579.252 147.528C579.472 147.464 579.707 147.469 579.924 147.541C580.195 147.628 580.423 147.814 580.563 148.063C580.702 148.311 580.741 148.603 580.674 148.879Z" fill="#265CC0"/>
<path opacity="0.6" d="M583.671 147.715C583.639 147.87 583.576 148.017 583.484 148.147C583.393 148.276 583.275 148.385 583.139 148.466C583.004 148.547 582.852 148.599 582.695 148.618C582.538 148.638 582.378 148.624 582.227 148.578C582.075 148.532 581.935 148.455 581.815 148.352C581.695 148.249 581.597 148.122 581.529 147.979C581.461 147.836 581.424 147.68 581.419 147.522C581.415 147.364 581.443 147.206 581.503 147.06C581.546 146.918 581.616 146.786 581.71 146.672C581.804 146.558 581.92 146.463 582.05 146.393C582.181 146.324 582.324 146.28 582.471 146.266C582.618 146.252 582.767 146.267 582.908 146.31C583.194 146.397 583.435 146.593 583.578 146.856C583.721 147.119 583.754 147.428 583.671 147.715Z" fill="#265CC0"/>
<path opacity="0.5" d="M587.872 158.138L575.496 163.022L574.76 160.587L587.123 155.703L587.872 158.138Z" fill="#265CC0"/>
<path opacity="0.2" d="M519.594 344.093C519.565 351.884 518.813 359.656 517.346 367.308C515.767 374.185 513.314 379.216 509.987 382.4C508.437 383.939 506.597 385.153 504.573 385.973C502.549 386.794 500.383 387.203 498.199 387.177C491.322 387.177 486.073 383.426 482.451 375.924C481.815 374.577 481.274 373.187 480.832 371.763C473.184 378.332 466.062 385.49 459.531 393.171L452.426 401.547C456.25 405.422 460.662 408.669 465.499 411.167C473.83 415.476 484.766 417.634 498.306 417.643C500.688 417.643 502.989 417.576 505.224 417.443C513.416 405.321 520.194 392.303 525.428 378.641L545.297 326.833L519.594 344.093Z" fill="black"/>
<path d="M340.476 414.78L363.891 438.195L429.453 376.42C406.854 367.789 362.914 392.288 340.476 414.78Z" fill="#263238"/>
<path d="M422.134 496.398C414.655 488.905 398.719 472.983 398.719 472.983L460.494 407.421C469.071 429.966 444.572 473.946 422.134 496.398Z" fill="#263238"/>
<path d="M511.753 348.817L537.296 299.565L488.044 325.134C472.224 333.339 457.617 343.695 444.639 355.908L360.68 434.944L401.93 476.194L480.966 392.235C493.185 379.254 503.546 364.642 511.753 348.817Z" fill="#265CC0"/>
<path opacity="0.6" d="M511.753 348.817L537.296 299.565L488.044 325.134C472.224 333.339 457.617 343.695 444.639 355.908L360.68 434.944L401.93 476.194L480.966 392.235C493.185 379.254 503.546 364.642 511.753 348.817Z" fill="white"/>
<path d="M459.304 394.817C468.836 394.817 476.564 387.089 476.564 377.557C476.564 368.024 468.836 360.297 459.304 360.297C449.771 360.297 442.043 368.024 442.043 377.557C442.043 387.089 449.771 394.817 459.304 394.817Z" fill="white"/>
<path d="M459.304 388.649C465.43 388.649 470.396 383.683 470.396 377.557C470.396 371.431 465.43 366.465 459.304 366.465C453.178 366.465 448.212 371.431 448.212 377.557C448.212 383.683 453.178 388.649 459.304 388.649Z" fill="#265CC0"/>
<path opacity="0.3" d="M415.886 461.369L375.491 420.975L408.567 389.853L447.007 428.307L415.886 461.369Z" fill="#265CC0"/>
<path d="M349.614 451.736C319.376 454.184 309.354 473.545 305.929 499.275C304.189 512.4 303.413 525.687 292.401 533.367C291.739 533.817 291.24 534.47 290.98 535.227C290.719 535.985 290.711 536.806 290.957 537.569C291.203 538.331 291.689 538.993 292.342 539.456C292.996 539.919 293.782 540.158 294.582 540.137C335.177 538.866 354.11 518.997 356.492 510.701C355.867 515.038 354.749 519.289 353.16 523.372C352.868 524.093 352.811 524.887 352.997 525.642C353.182 526.397 353.602 527.074 354.195 527.576C354.788 528.079 355.525 528.382 356.3 528.441C357.075 528.501 357.849 528.314 358.512 527.908C369.898 520.776 384.188 507.637 385.138 486.323C376.762 474.455 349.614 451.736 349.614 451.736Z" fill="#265CC0"/>
<path opacity="0.2" d="M349.614 451.736C319.376 454.184 309.354 473.545 305.929 499.275C304.189 512.4 303.413 525.687 292.401 533.367C291.739 533.817 291.24 534.47 290.98 535.227C290.719 535.985 290.711 536.806 290.957 537.569C291.203 538.331 291.689 538.993 292.342 539.456C292.996 539.919 293.782 540.158 294.582 540.137C335.177 538.866 354.11 518.997 356.492 510.701C355.867 515.038 354.749 519.289 353.16 523.372C352.868 524.093 352.811 524.887 352.997 525.642C353.182 526.397 353.602 527.074 354.195 527.576C354.788 528.079 355.525 528.382 356.3 528.441C357.075 528.501 357.849 528.314 358.512 527.908C369.898 520.776 384.188 507.637 385.138 486.323C376.762 474.455 349.614 451.736 349.614 451.736Z" fill="white"/>
<path d="M389.835 495.461L341.399 447.026L367.196 441.446L395.414 469.665L389.835 495.461Z" fill="#265CC0"/>
</svg>
