<svg width="22" height="22" viewBox="0 0 22 22" fill="none" xmlns="http://www.w3.org/2000/svg">
<path d="M5.5932 16.9997V16.1425H6.84978L8.46035 10.7048C8.54149 10.3991 8.70549 10.1577 8.95235 9.98052C9.19863 9.8028 9.47463 9.71395 9.78035 9.71395H12.2198C12.5255 9.71395 12.8015 9.80252 13.0478 9.97966C13.2946 10.1574 13.4586 10.3991 13.5398 10.7048L15.1512 16.1425H16.4069V16.9997H5.5932ZM7.7592 16.1425H14.2409L12.7143 10.9499C12.6812 10.8294 12.6181 10.7359 12.5249 10.6697C12.4312 10.6039 12.3241 10.5711 12.2035 10.5711H9.79663C9.67606 10.5711 9.56892 10.6039 9.4752 10.6697C9.38206 10.7359 9.31892 10.8294 9.28578 10.9499L7.76006 16.1425H7.7592ZM10.5715 7.47252V4.04395H11.4286V7.47252H10.5715ZM15.2429 9.41223L14.6318 8.80109L17.0643 6.38909L17.6541 6.97966L15.2429 9.41223ZM16.5715 13.4725V12.6154H20.0001V13.4725H16.5715ZM6.7572 9.41223L4.34606 6.97966L4.93578 6.38909L7.36835 8.80109L6.7572 9.41223ZM2.00006 13.4725V12.6154H5.42863V13.4725H2.00006Z" fill="#B3261E"/>
</svg>
