<svg width="16" height="16" viewBox="0 0 16 16" fill="none" xmlns="http://www.w3.org/2000/svg">
<g clip-path="url(#clip0_234_1250)">
<path d="M15.4286 7.99986C15.4286 9.97004 14.6459 11.8595 13.2528 13.2527C11.8597 14.6458 9.97018 15.4284 8 15.4284C6.02982 15.4284 4.14033 14.6458 2.7472 13.2527C1.35408 11.8595 0.571426 9.97004 0.571426 7.99986M15.4286 7.99986C15.4286 6.02968 14.6459 4.14019 13.2528 2.74707C11.8597 1.35394 9.97018 0.571289 8 0.571289C6.02982 0.571289 4.14033 1.35394 2.7472 2.74707C1.35408 4.14019 0.571426 6.02968 0.571426 7.99986M15.4286 7.99986H0.571426" stroke="#344054" stroke-linecap="round" stroke-linejoin="round"/>
<path d="M10.8571 7.99986C10.7168 10.7164 9.7162 13.318 8 15.4284C6.28379 13.318 5.28319 10.7164 5.14285 7.99986C5.28319 5.2833 6.28379 2.68175 8 0.571289C9.7162 2.68175 10.7168 5.2833 10.8571 7.99986Z" stroke="#344054" stroke-linecap="round" stroke-linejoin="round"/>
</g>
<defs>
<clipPath id="clip0_234_1250">
<rect width="16" height="16" fill="white"/>
</clipPath>
</defs>
</svg>
