<svg width="13" height="13" viewBox="0 0 13 13" fill="none" xmlns="http://www.w3.org/2000/svg">
<path d="M11.8981 8.90362L8.95375 7.58425L8.94563 7.5805C8.79277 7.51512 8.62603 7.48889 8.46048 7.50416C8.29493 7.51944 8.13581 7.57575 7.9975 7.668C7.98122 7.67876 7.96556 7.69044 7.95063 7.703L6.42937 8.99987C5.46562 8.53175 4.47062 7.54425 4.0025 6.593L5.30125 5.04862C5.31375 5.033 5.32562 5.01737 5.33687 5.0005C5.42714 4.86256 5.48191 4.70445 5.4963 4.54023C5.5107 4.37601 5.48427 4.21078 5.41937 4.05925V4.05175L4.09625 1.10237C4.01046 0.904414 3.86295 0.739508 3.67574 0.632273C3.48853 0.525037 3.27166 0.481224 3.0575 0.507374C2.2106 0.618815 1.43324 1.03473 0.870582 1.67743C0.307928 2.32014 -0.00153321 3.14568 -1.97399e-06 3.99987C-1.97399e-06 8.96237 4.0375 12.9999 9 12.9999C9.85419 13.0014 10.6797 12.6919 11.3224 12.1293C11.9651 11.5666 12.3811 10.7893 12.4925 9.94237C12.5187 9.72829 12.475 9.51147 12.3679 9.32427C12.2607 9.13707 12.096 8.98951 11.8981 8.90362ZM9 11.9999C6.87898 11.9976 4.84549 11.154 3.3457 9.65417C1.84591 8.15438 1.00231 6.12089 0.999998 3.99987C0.997647 3.38955 1.21753 2.79925 1.61858 2.33919C2.01964 1.87913 2.57444 1.58079 3.17937 1.49987C3.17913 1.50237 3.17913 1.50488 3.17937 1.50737L4.49187 4.44487L3.2 5.99112C3.18689 6.00621 3.17498 6.0223 3.16437 6.03925C3.07032 6.18357 3.01515 6.34975 3.0042 6.52166C2.99325 6.69358 3.02689 6.86541 3.10187 7.0205C3.66812 8.17862 4.835 9.33675 6.00562 9.90237C6.16185 9.97666 6.33468 10.0091 6.50721 9.99665C6.67975 9.98416 6.8461 9.92713 6.99 9.83112C7.00605 9.82031 7.02149 9.80863 7.03625 9.79612L8.55562 8.49987L11.4931 9.8155H11.5C11.4201 10.4213 11.1222 10.9772 10.662 11.3793C10.2019 11.7813 9.61104 12.0019 9 11.9999Z" fill="#344054"/>
</svg>
