<svg width="48" height="48" viewBox="0 0 48 48" fill="none" xmlns="http://www.w3.org/2000/svg">
<circle cx="24" cy="24" r="24" fill="#EFF2F6"/>
<circle cx="24" cy="24" r="23.5" stroke="#486384" stroke-opacity="0.6"/>
<path d="M18.1646 19.6351C18.1646 19.451 18.2377 19.2745 18.3679 19.1443C18.4981 19.0141 18.6746 18.941 18.8587 18.941H25.7997C25.9838 18.941 26.1603 19.0141 26.2905 19.1443C26.4207 19.2745 26.4938 19.451 26.4938 19.6351C26.4938 19.8192 26.4207 19.9957 26.2905 20.1259C26.1603 20.2561 25.9838 20.3292 25.7997 20.3292H18.8587C18.6746 20.3292 18.4981 20.2561 18.3679 20.1259C18.2377 19.9957 18.1646 19.8192 18.1646 19.6351ZM18.8587 23.1056C18.6746 23.1056 18.4981 23.1787 18.3679 23.3089C18.2377 23.4391 18.1646 23.6156 18.1646 23.7997C18.1646 23.9838 18.2377 24.1603 18.3679 24.2905C18.4981 24.4207 18.6746 24.4938 18.8587 24.4938H25.7997C25.9838 24.4938 26.1603 24.4207 26.2905 24.2905C26.4207 24.1603 26.4938 23.9838 26.4938 23.7997C26.4938 23.6156 26.4207 23.4391 26.2905 23.3089C26.1603 23.1787 25.9838 23.1056 25.7997 23.1056H18.8587ZM18.1646 27.9643C18.1646 27.7802 18.2377 27.6037 18.3679 27.4735C18.4981 27.3433 18.6746 27.2702 18.8587 27.2702H21.6351C21.8192 27.2702 21.9957 27.3433 22.1259 27.4735C22.2561 27.6037 22.3292 27.7802 22.3292 27.9643C22.3292 28.1484 22.2561 28.325 22.1259 28.4551C21.9957 28.5853 21.8192 28.6584 21.6351 28.6584H18.8587C18.6746 28.6584 18.4981 28.5853 18.3679 28.4551C18.2377 28.325 18.1646 28.1484 18.1646 27.9643ZM16.7764 12.6941C16.7764 12.51 16.8495 12.3335 16.9797 12.2033C17.1099 12.0731 17.2864 12 17.4705 12C17.6546 12 17.8311 12.0731 17.9613 12.2033C18.0915 12.3335 18.1646 12.51 18.1646 12.6941V13.3882H21.6351V12.6941C21.6351 12.51 21.7082 12.3335 21.8384 12.2033C21.9686 12.0731 22.1451 12 22.3292 12C22.5133 12 22.6898 12.0731 22.82 12.2033C22.9502 12.3335 23.0233 12.51 23.0233 12.6941V13.3882H26.4938V12.6941C26.4938 12.51 26.5669 12.3335 26.6971 12.2033C26.8273 12.0731 27.0038 12 27.1879 12C27.372 12 27.5485 12.0731 27.6787 12.2033C27.8089 12.3335 27.882 12.51 27.882 12.6941V13.3882H28.5761C29.1284 13.3882 29.658 13.6076 30.0485 13.9981C30.439 14.3886 30.6584 14.9182 30.6584 15.4705V22.0395C30.2059 22.2338 29.7811 22.5142 29.4118 22.8849L29.2702 23.0265V15.4705C29.2702 15.2864 29.1971 15.1099 29.0669 14.9797C28.9368 14.8495 28.7602 14.7764 28.5761 14.7764H16.0823C15.8982 14.7764 15.7217 14.8495 15.5915 14.9797C15.4613 15.1099 15.3882 15.2864 15.3882 15.4705V32.1289C15.3882 32.313 15.4613 32.4896 15.5915 32.6197C15.7217 32.7499 15.8982 32.823 16.0823 32.823H21.2464L21.0201 33.7295C20.9806 33.8875 20.9555 34.0487 20.9452 34.2112H16.0823C15.53 34.2112 15.0004 33.9918 14.6099 33.6013C14.2194 33.2108 14 32.6812 14 32.1289V15.4705C14 14.9182 14.2194 14.3886 14.6099 13.9981C15.0004 13.6076 15.53 13.3882 16.0823 13.3882H16.7764V12.6941ZM30.3947 23.8663L23.6896 30.5714C23.2989 30.962 23.0215 31.4514 22.8873 31.9873L22.3667 34.0669C22.3154 34.2737 22.3184 34.4903 22.3755 34.6956C22.4326 34.9009 22.5418 35.0879 22.6926 35.2385C22.8433 35.3891 23.0305 35.4982 23.2358 35.5551C23.4412 35.612 23.6578 35.6149 23.8646 35.5633L25.9441 35.0441C26.4801 34.9101 26.9696 34.6327 27.3601 34.2418L34.0651 27.5368C34.5456 27.0486 34.8137 26.3902 34.8109 25.7052C34.8081 25.0202 34.5347 24.3641 34.0502 23.8798C33.5658 23.3955 32.9095 23.1224 32.2245 23.1198C31.5395 23.1173 30.8813 23.3857 30.3933 23.8663H30.3947Z" fill="#486384"/>
</svg>
